<svg height="100%" fill="none" viewBox="0 0 1440 759" xmlns="http://www.w3.org/2000/svg">
    <mask id="a" style="mask-type:alpha" maskUnits="userSpaceOnUse" x="0" y="0" width="1440" height="759">
        <path d="M0 0h1440v600L737.4 756.1a80 80 0 0 1-34.8 0L0 600V0Z" fill="#002121FF"/>
    </mask>
    <g mask="url(#a)">
        <path d="M0 0h1440v600L737.4 756.1a80 80 0 0 1-34.8 0L0 600V0Z" fill="#008989"/>
        <g filter="url(#b)">
            <path d="M0-160h1440v600L737.4 596.1a80 80 0 0 1-34.8 0L0 440v-600Z" fill="#006c6c"/>
        </g>
        <g filter="url(#c)">
            <path d="M0-320h1440v600L737.4 436.1a80 80 0 0 1-34.8 0L0 280v-600Z" fill="#005151"/>
        </g>
        <g filter="url(#d)">
            <path d="M0-480h1440v600L737.4 276.1a80 80 0 0 1-34.8 0L0 120v-600Z" fill="#003737"/>
        </g>
        <g filter="url(#e)">
            <path d="M0-640h1440v600L737.4 116.1a80 80 0 0 1-34.8 0L0-40v-600Z" fill="#002121FF"/>
        </g>
        <path fill="url(#f)" fill-opacity=".3" style="mix-blend-mode:overlay" d="M0 0h1440v760H0z"/>
    </g>
    <defs>
        <filter id="b" x="-80" y="-236" width="1600" height="918" filterUnits="userSpaceOnUse"
                color-interpolation-filters="sRGB">
            <feFlood flood-opacity="0" result="BackgroundImageFix"/>
            <feColorMatrix in="SourceAlpha" values="0 0 0 0 0 0 0 0 0 0 0 0 0 0 0 0 0 0 127 0" result="hardAlpha"/>
            <feOffset dy="4"/>
            <feGaussianBlur stdDeviation="40"/>
            <feComposite in2="hardAlpha" operator="out"/>
            <feColorMatrix values="0 0 0 0 0.0588235 0 0 0 0 0.0627451 0 0 0 0 0.101961 0 0 0 0.2 0"/>
            <feBlend in2="BackgroundImageFix" result="effect1_dropShadow_8_189"/>
            <feBlend in="SourceGraphic" in2="effect1_dropShadow_8_189" result="shape"/>
        </filter>
        <filter id="c" x="-80" y="-396" width="1600" height="918" filterUnits="userSpaceOnUse"
                color-interpolation-filters="sRGB">
            <feFlood flood-opacity="0" result="BackgroundImageFix"/>
            <feColorMatrix in="SourceAlpha" values="0 0 0 0 0 0 0 0 0 0 0 0 0 0 0 0 0 0 127 0" result="hardAlpha"/>
            <feOffset dy="4"/>
            <feGaussianBlur stdDeviation="40"/>
            <feComposite in2="hardAlpha" operator="out"/>
            <feColorMatrix values="0 0 0 0 0.0588235 0 0 0 0 0.0627451 0 0 0 0 0.101961 0 0 0 0.2 0"/>
            <feBlend in2="BackgroundImageFix" result="effect1_dropShadow_8_189"/>
            <feBlend in="SourceGraphic" in2="effect1_dropShadow_8_189" result="shape"/>
        </filter>
        <filter id="d" x="-80" y="-556" width="1600" height="918" filterUnits="userSpaceOnUse"
                color-interpolation-filters="sRGB">
            <feFlood flood-opacity="0" result="BackgroundImageFix"/>
            <feColorMatrix in="SourceAlpha" values="0 0 0 0 0 0 0 0 0 0 0 0 0 0 0 0 0 0 127 0" result="hardAlpha"/>
            <feOffset dy="4"/>
            <feGaussianBlur stdDeviation="40"/>
            <feComposite in2="hardAlpha" operator="out"/>
            <feColorMatrix values="0 0 0 0 0.0588235 0 0 0 0 0.0627451 0 0 0 0 0.101961 0 0 0 0.2 0"/>
            <feBlend in2="BackgroundImageFix" result="effect1_dropShadow_8_189"/>
            <feBlend in="SourceGraphic" in2="effect1_dropShadow_8_189" result="shape"/>
        </filter>
        <filter id="e" x="-80" y="-716" width="1600" height="918" filterUnits="userSpaceOnUse"
                color-interpolation-filters="sRGB">
            <feFlood flood-opacity="0" result="BackgroundImageFix"/>
            <feColorMatrix in="SourceAlpha" values="0 0 0 0 0 0 0 0 0 0 0 0 0 0 0 0 0 0 127 0" result="hardAlpha"/>
            <feOffset dy="4"/>
            <feGaussianBlur stdDeviation="40"/>
            <feComposite in2="hardAlpha" operator="out"/>
            <feColorMatrix values="0 0 0 0 0.0588235 0 0 0 0 0.0627451 0 0 0 0 0.101961 0 0 0 0.2 0"/>
            <feBlend in2="BackgroundImageFix" result="effect1_dropShadow_8_189"/>
            <feBlend in="SourceGraphic" in2="effect1_dropShadow_8_189" result="shape"/>
        </filter>
        <linearGradient id="f" x1="455.8" y1="40.4" x2="901.1" y2="649.6" gradientUnits="userSpaceOnUse">
            <stop stop-color="#00DBDB"/>
            <stop offset="1" stop-color="#F34A4A"/>
        </linearGradient>
    </defs>
</svg>