<svg id="Layer_1" data-name="Layer 1" xmlns="http://www.w3.org/2000/svg" xmlns:xlink="http://www.w3.org/1999/xlink"
     width="1920" height="2000" viewBox="0 0 1920 2000">
    <defs>
        <style>
            .cls-1{fill:url(#linear-gradient);}.cls-2,.cls-3,.cls-4,.cls-5{fill-rule:evenodd;}.cls-2{opacity:0.5;fill:url(#linear-gradient-2);}.cls-3{fill:url(#linear-gradient-3);}.cls-4{fill:url(#linear-gradient-4);}.cls-5{opacity:0.25;fill:url(#linear-gradient-5);}
        </style>
        linear-gradient(100deg, #FFF01B -20%, #93A400 25%, #B4A800 75%, #FFF01B 120%)
        <linearGradient id="linear-gradient" x1="-0.11" y1="2024.18" x2="1919.89" y2="2024.18"
                        gradientTransform="translate(0.22 -1024.18)" gradientUnits="userSpaceOnUse">
            <stop offset="0" stop-color="#B4A800"/>
            <stop offset="1" stop-color="#E7D800"/>
        </linearGradient>
        <linearGradient id="linear-gradient-2" x1="1771.41" y1="227.45" x2="-74" y2="1307.33"
                        gradientUnits="userSpaceOnUse">
            <stop offset="0" stop-color="#6A7600"/>
            <stop offset="1" stop-color="#E7D800"/>
        </linearGradient>
        <linearGradient id="linear-gradient-3" x1="960" y1="1623.38" x2="960" y2="238.12"
                        xlink:href="#linear-gradient-2"/>
        <linearGradient id="linear-gradient-4" x1="1375.71" y1="953.21" x2="164.51" y2="2164.4"
                        gradientUnits="userSpaceOnUse">
            <stop offset="0" stop-color="#E7D800"/>
            <stop offset="1" stop-color="#93A400"/>
        </linearGradient>
        <linearGradient id="linear-gradient-5" x1="0.11" y1="1529.43" x2="1920.11" y2="1529.43"
                        gradientUnits="userSpaceOnUse">
            <stop offset="0" stop-color="#B4A800"/>
            <stop offset="1" stop-color="#6A7600"/>
        </linearGradient>
    </defs>
    <rect class="cls-1" x="0.11" width="1920" height="2000" transform="translate(1920.22 2000) rotate(180)"/>
    <path class="cls-2"
          d="M1920.11,476.81c-131.23-87.48-270-53-400.26-77-136.49-25.16,91.18-92-336.17-79.31S400.34,188.21,283.51,165.55-.11,185.37-.11,185.37V1215.5l1920.22,3.66Z"/>
    <path class="cls-3"
          d="M1920.11,677.43c-78.09-22.69-155.85-60.38-201.89-90.08-75.87-48.94-159.73-.89-273.67-24.51S1219.2,464.22,1055,383.63c-80.21-39.35-301.77-59.35-490.61-33.95C329.18,381.3,352.62,305.21,236.09,267,90.17,219.14-.11,245.21-.11,245.21L.11,1527.73l1920,95.65Z"/>
    <path class="cls-4"
          d="M1920.11,1497.61c-34.08,3.81-76.18,9.56-135.19-4.72-36.61-8.86-62.89-51.29-115.87-74.68-41.93-18.51-56.38-9.28-103.56-25.17s-41.9-43.26-103.43-65.78c-62.37-22.83-108.51-6.71-206.18-36.3s-159.47-140-244-180c-116.39-55-155.2,3.44-292.08-70.56C620.1,986.54,620.2,814,440.93,771.54s-441-33.7-441-33.7L.11,2000h1920Z"/>
    <path class="cls-5"
          d="M1920.11,1714.8c-21.41-37.45-77.82-83.11-250.55-120.88-265-58-375.55,60-677.09-20.31-116.32-31-174.59-157.34-321.33-232s-333.9-57.69-449-92.13S150.33,1188,58.09,1099.22c-16.81-16.17-36.7-29.45-58-40.36V2000h1920Z"/>
</svg>
