<?xml version="1.0" encoding="UTF-8" standalone="no"?>
<svg xmlns:dc="http://purl.org/dc/elements/1.1/" xmlns:cc="http://creativecommons.org/ns#" xmlns:rdf="http://www.w3.org/1999/02/22-rdf-syntax-ns#" xmlns:svg="http://www.w3.org/2000/svg" xmlns="http://www.w3.org/2000/svg" xmlns:sodipodi="http://sodipodi.sourceforge.net/DTD/sodipodi-0.dtd" xmlns:inkscape="http://www.inkscape.org/namespaces/inkscape" width="360" height="424" viewBox="0 0 360 424" id="svg2" version="1.1" inkscape:version="0.91 r13725" sodipodi:docname="grunt-logo.svg">
    <metadata id="metadata102">
        <rdf:RDF>
            <cc:Work rdf:about="">
                <dc:format>image/svg+xml</dc:format>
                <dc:type rdf:resource="http://purl.org/dc/dcmitype/StillImage" />
            </cc:Work>
        </rdf:RDF>
    </metadata>
    <defs id="defs100" />
    <sodipodi:namedview pagecolor="#ffffff" bordercolor="#666666" borderopacity="1" objecttolerance="10" gridtolerance="10" guidetolerance="10" inkscape:pageopacity="0" inkscape:pageshadow="2" inkscape:window-width="1302" inkscape:window-height="1086" id="namedview98" showgrid="false" inkscape:zoom="0.78716" inkscape:cx="166.18" inkscape:cy="412.04" inkscape:window-x="3322" inkscape:window-y="265" inkscape:window-maximized="0" inkscape:current-layer="svg2" />
    <path d="M 20.778,56.5 176.65,0.97001 336.71,55.52 335.1,68.4 333.48,81.28 331.85,94.17 296.56,110.61 325.68,132.59 327,132.83 325.38,145.74 323.75,158.62 322.15,171.49 320.51,184.4 320.58,185.48 292.28,202.25 315.66,223.07 314.04,235.96 312.42,248.84 310.8,261.72 176.65,336.02 44.596,262.71 43.104,249.83 41.618,236.92 40.133,224.03 64.224,205.18 35.888,185.21 35.664,185.38 34.172,172.49 32.687,159.61 31.201,146.71 29.709,133.83 29.485,133.99 56.027,112.6 25.241,95.15 23.755,82.27 22.264,69.39 Z" id="path4190" style="fill:#f1dd3f;fill-opacity:1" inkscape:connector-curvature="0" sodipodi:nodetypes="ccccccccccccccccccccccccccccccccccccc" />
    <path d="M 336.71,55.52 176.65,0.97001 176.65,336.02 310.8,261.86 312.42,248.96 314.04,236.06 315.66,223.16 293.46,203.2 319.73,186 320.09,185.31 322.15,171.58 323.75,158.67 325.38,145.77 327,132.88 326.93,133.04 295.05,110.21 331.85,94.19 333.48,81.3 335.1,68.4 Z" id="path4192" style="fill:#f9ed8b;fill-opacity:1" inkscape:connector-curvature="0" sodipodi:nodetypes="cccccccccccccccccccc" />
    <path style="fill:#000000;fill-opacity:0.14465;fill-rule:evenodd;stroke:none;stroke-width:0.1088px;stroke-linecap:butt;stroke-linejoin:miter;stroke-opacity:1" d="M 289.65,205.74 176.57,238.73 176.54,222.05 319.1,185.7 Z" id="path4957" inkscape:connector-curvature="0" sodipodi:nodetypes="ccccc" />
    <path style="fill:#ffffff;fill-opacity:0.25157;fill-rule:evenodd;stroke:none;stroke-width:0.1088px;stroke-linecap:butt;stroke-linejoin:miter;stroke-opacity:1" d="M 315.16,223.56 175.93,268.19 176.49,238.55 293.51,203.17 Z" id="path4959" inkscape:connector-curvature="0" sodipodi:nodetypes="ccccc" />
    <path style="fill:#ffffff;fill-opacity:0.25157;fill-rule:evenodd;stroke:none;stroke-width:0.1088px;stroke-linecap:butt;stroke-linejoin:miter;stroke-opacity:1" d="M 327.81,134.92 176.03,111.12 176.57,85.06 297.95,111.05 Z" id="path4959-6" inkscape:connector-curvature="0" sodipodi:nodetypes="ccccc" />
    <path style="fill:#000000;fill-opacity:0.14465;fill-rule:evenodd;stroke:none;stroke-width:0.1088px;stroke-linecap:butt;stroke-linejoin:miter;stroke-opacity:1" d="M 296.86,110.79 176.55,84.99 176.52,59.82 330.94,93.96 Z" id="path4957-0" inkscape:connector-curvature="0" sodipodi:nodetypes="ccccc" />
    <path style="fill:#ffffff;fill-opacity:0.25157;fill-rule:evenodd;stroke:none;stroke-width:0.1088px;stroke-linecap:butt;stroke-linejoin:miter;stroke-opacity:1" d="M 176.22,268.05 40.894,223.19 64.498,205.23 176.27,238.69 Z" id="path4959-62" inkscape:connector-curvature="0" sodipodi:nodetypes="ccccc" />
    <path style="fill:#000000;fill-opacity:0.14465;fill-rule:evenodd;stroke:none;stroke-width:0.1088px;stroke-linecap:butt;stroke-linejoin:miter;stroke-opacity:1" d="M 176.25,238.42 63.567,204.79 36.371,185.58 176.69,222.34 Z" id="path4957-6" inkscape:connector-curvature="0" sodipodi:nodetypes="ccccc" />
    <path style="fill:#ffffff;fill-opacity:0.25157;fill-rule:evenodd;stroke:none;stroke-width:0.1088px;stroke-linecap:butt;stroke-linejoin:miter;stroke-opacity:1" d="M 176.65,111.19 30.702,133.22 56.076,112.49 176.63,85.02 Z" id="path4959-6-1" inkscape:connector-curvature="0" sodipodi:nodetypes="ccccc" />
    <path style="fill:#000000;fill-opacity:0.14465;fill-rule:evenodd;stroke:none;stroke-width:0.1088px;stroke-linecap:butt;stroke-linejoin:miter;stroke-opacity:1" d="M 176.52,85.04 56.274,111.97 25.394,95.34 176.12,60.32 Z" id="path4957-0-8" inkscape:connector-curvature="0" sodipodi:nodetypes="ccccc" />
</svg>
