<?xml version="1.0" encoding="UTF-8" standalone="no"?>
<!-- Created with Inkscape (http://www.inkscape.org/) -->

<svg
   width="91mm"
   height="65mm"
   viewBox="0 0 91 65"
   version="1.1"
   id="svg5"
   xmlns="http://www.w3.org/2000/svg"
   xmlns:svg="http://www.w3.org/2000/svg">
  <defs
     id="defs2" />
  <g
     id="layer1">
    <path
       style="color:#000000;fill:#000000;stroke-linecap:round;stroke-linejoin:round;-inkscape-stroke:none"
       d="m 28.578367,1.8158183 c -2.994094,-0.02789 -5.991185,0.583752 -8.933593,1.644531 a 1.5826582,1.5826582 0 0 0 -0.146485,0.06055 C 14.280963,6.0165203 8.6233942,9.6165163 4.7678212,17.024806 c -6.03e-4,0.0011 -0.0014,0.0028 -0.002,0.0039 -2.419812,4.502804 -4.72367403,12.703302 -3.410156,21 0.08066,6.471059 5.250855,14.506123 12.3124998,18.917969 2.177814,1.452357 5.974876,2.774167 10.628906,3.302734 4.661216,0.529383 10.13156,0.191425 15.246094,-2.125 a 1.5826582,1.5826582 0 0 0 0.03125,-0.01563 C 44.555133,55.72517 48.64631,51.904991 51.90254,45.893935 a 1.5826582,1.5826582 0 0 0 0.01758,-0.03516 c 1.681574,-3.292621 1.719733,-5.686808 1.792969,-7.638672 A 1.5826582,1.5826582 0 0 0 52.209227,36.57949 L 37.787352,35.880271 a 1.5825,1.5825 0 0 0 -1.658203,1.503907 1.5825,1.5825 0 0 0 1.503906,1.65625 l 12.800781,0.623046 c -0.08915,1.360317 -0.291517,2.710502 -1.328125,4.744141 -2.994545,5.518693 -6.473921,8.723615 -10.876953,10.835938 -4.439414,2.007906 -9.347132,2.341406 -13.574219,1.861328 -4.230165,-0.480429 -7.825495,-1.84901 -9.240234,-2.794922 a 1.5826582,1.5826582 0 0 0 -0.04297,-0.02734 C 9.2320452,50.459535 4.5528782,42.597012 4.5119612,37.95449 a 1.5826582,1.5826582 0 0 0 -0.02148,-0.244141 c -1.229372,-7.43513 1.008344,-15.36117 3.064449,-19.185546 a 1.5826582,1.5826582 0 0 0 0.0098,-0.02148 C 11.018763,11.853857 15.838102,8.7930153 20.78348,6.4193393 c 5.322693,-1.906244 10.288339,-2.138072 15.265625,0.40625 a 1.5826582,1.5826582 0 0 0 0.02148,0.0098 l 3.404297,1.673829 a 1.5825,1.5825 0 0 0 2.117187,-0.720704 1.5825,1.5825 0 0 0 -0.720703,-2.11914 l -3.380859,-1.66211 c -2.926696,-1.496087 -5.918015,-2.163516 -8.91211,-2.191406 z"
       id="path871" />
    <path
       style="color:#000000;fill:#000000;stroke-linecap:round;stroke-linejoin:round;-inkscape-stroke:none"
       d="M 40.61743,0.77480327 A 1.5825,1.5825 0 0 0 38.927977,2.2415993 l -0.261719,3.699219 -4.246094,1.492188 a 1.5825,1.5825 0 0 0 -0.966797,2.017578 1.5825,1.5825 0 0 0 2.017579,0.9687497 l 5.226562,-1.8359377 a 1.5826582,1.5826582 0 0 0 1.052734,-1.382812 l 0.333985,-4.736328 A 1.5825,1.5825 0 0 0 40.61743,0.77480327 Z"
       id="path2943" />
    <path
       style="color:#000000;fill:#000000;stroke-linecap:round;stroke-linejoin:round;-inkscape-stroke:none"
       d="m 56.787352,6.2181623 a 1.5826582,1.5826582 0 0 0 -0.02148,0.002 c -5.195052,0.478512 -10.431406,1.17575 -15.281255,6.4960467 a 1.5826582,1.5826582 0 0 0 -0.02148,0.02344 c -3.898921,4.447677 -6.285597,9.696048 -6.318359,16.779297 a 1.5825,1.5825 0 0 0 1.574218,1.589844 1.5825,1.5825 0 0 0 1.589844,-1.574219 c 0.02961,-6.400858 2.00365,-10.673537 5.525391,-14.695312 4.204775,-4.605571 8.067824,-4.9920757 13.199219,-5.4648437 h 0.0039 c 4.972291,-0.384792 8.463044,0.293329 11.382812,0.9374997 6.890415,2.177923 9.809646,5.133018 12.445316,8.847656 4.03635,6.112167 5.1102,11.254966 4.67968,16.044922 a 1.5826582,1.5826582 0 0 0 -0.002,0.02344 c -0.71225,9.606791 -2.91616,12.806191 -6.73437,16.074218 -3.94149,3.188137 -5.915275,5.374007 -13.005863,5.919922 -3.62721,-0.172206 -5.839598,-0.540916 -9.816406,-2.080078 a 1.5825,1.5825 0 0 0 -2.046875,0.904297 1.5825,1.5825 0 0 0 0.904296,2.046875 c 4.245226,1.643049 7.047975,2.125103 10.917969,2.302734 a 1.5826582,1.5826582 0 0 0 0.189453,-0.0039 C 73.803839,59.80891 76.971348,56.856947 80.818548,53.74747 a 1.5826582,1.5826582 0 0 0 0.0332,-0.02734 c 4.21666,-3.605192 7.09517,-8.156587 7.8457,-18.244141 0.49055,-5.486882 -0.84453,-11.492623 -5.21094,-18.091796 a 1.5826582,1.5826582 0 0 0 -0.0293,-0.04297 C 80.6043,13.317212 76.83509,9.6344643 69.314696,7.2708963 a 1.5826582,1.5826582 0 0 0 -0.132813,-0.03516 c -2.99781,-0.662863 -6.970548,-1.43795 -12.394531,-1.017578 z"
       id="path2945" />
    <path
       style="color:#000000;fill:#000000;stroke-linecap:round;stroke-linejoin:round;-inkscape-stroke:none"
       d="m 60.275633,53.679099 -5.269531,1.408204 a 1.5825,1.5825 0 0 0 -1.119141,1.939453 1.5825,1.5825 0 0 0 1.9375,1.11914 l 5.269531,-1.410156 a 1.5825,1.5825 0 0 0 1.119141,-1.9375 1.5825,1.5825 0 0 0 -1.9375,-1.119141 z"
       id="path5967" />
    <path
       style="color:#000000;fill:#000000;stroke-linecap:round;stroke-linejoin:round;-inkscape-stroke:none"
       d="m 55.27368,55.040428 a 1.5825,1.5825 0 0 0 -1.435547,1.71875 l 0.457031,5.078125 a 1.5825,1.5825 0 0 0 1.71875,1.433593 1.5825,1.5825 0 0 0 1.433594,-1.716797 L 56.990477,56.475974 A 1.5825,1.5825 0 0 0 55.27368,55.040428 Z"
       id="path5969" />
  </g>
</svg>
