<?xml version="1.0" encoding="UTF-8"?> <svg xmlns="http://www.w3.org/2000/svg" id="Layer_1" data-name="Layer 1" width="656.29" height="103.26" viewBox="0 0 656.29 103.26"><defs><style> .cls-1 { fill: #dd0031; } .cls-2 { fill: #c3002f; } .cls-3 { fill: #fff; } .cls-4 { fill: #002a41; } .cls-5 { fill: #0071b5; } .cls-6 { fill: #e04e39; fill-rule: evenodd; } .cls-7 { fill: #61dafb; } .cls-8 { fill: #4dba87; } .cls-9 { fill: #435466; } </style></defs><title>spa-logos</title><g><path class="cls-1" d="M186,.6,138.2,17.66l7.3,63.24L186,103.35,226.56,80.9l7.3-63.24Z" transform="translate(-0.03 -0.39)"></path><path class="cls-2" d="M186.17.6V103.35L226.7,80.9,234,17.66Z" transform="translate(-0.03 -0.39)"></path><path class="cls-3" d="M186,12.1l-29.88,67h11.14l6-15h25.36l6,15h11.14Zm8.73,42.81H177.3l8.73-21Z" transform="translate(-0.03 -0.39)"></path></g><g><path class="cls-4" d="M387,.93V56.12l41.08,23.41v-16L400.69,47.94V23.42L428.08,39V24.35Z" transform="translate(-0.03 -0.39)"></path><path class="cls-5" d="M469.15,1V56.21L428.08,79.65V63.55l27.38-15.61V23.42L428.08,39V24.4L469.15,1Z" transform="translate(-0.03 -0.39)"></path><path class="cls-5" d="M387,103V47.81L428.08,24.4v16L400.69,56V79.26l27.39-15.61V79.58Z" transform="translate(-0.03 -0.39)"></path><path class="cls-4" d="M469.15,103V47.81L428.08,24.4v16L455.46,56V79.26L428.08,63.65V79.58Z" transform="translate(-0.03 -0.39)"></path></g><path class="cls-6" d="M605.21,60s-.77-2.75,2.08-8,5.07-2.4,5.07-2.4,2.43,2.68-.35,6.7a8.12,8.12,0,0,1-6.8,3.74Zm-21.86,3.81C580.09,72.48,572.18,69,572.18,69s-.9-3.11,1.67-11.78,8.6-5.29,8.6-5.29S586.61,55.13,583.35,63.81Zm-5.89-36.32s4.92-13,6.1-6.7S573.22,46,573.22,46c.14-4.23,4.23-18.55,4.23-18.55ZM507,59.93c.21-8.39,5.62-12.06,7.49-10.23s1.18,5.78-2.36,8.25-5.13,2-5.13,2Zm149.25-1.27a1.9,1.9,0,0,0-2.78-1.78s-4,3.19-7.56,2.83-2.43-8.44-2.43-8.44.77-7.42-1.32-8-4.65,1.94-4.65,1.94a26.77,26.77,0,0,0-4.72,8.22l-.41.15s.48-8.09-.07-9.93c-.42-.93-4.24-.86-4.86.77s-3.68,13-3.89,17.74c0,0-6,5.18-11.17,6S606,65.67,606,65.67s14.16-4.05,13.67-15.61S608.23,42.77,607,43.72s-7.59,4.86-9.45,15.77c-.06.37-.17,2-.17,2s-5.48,3.76-8.54,4.75c0,0,8.54-14.68-1.87-21.35-4.72-2.91-8.46,3.19-8.46,3.19s14.08-16,11-29.58c-1.49-6.45-4.64-7.14-7.54-6.1a13.18,13.18,0,0,0-6.06,4.4,50.22,50.22,0,0,0-7,21c-1.32,12.55-3.26,27.74-3.26,27.74s-2.71,2.69-5.21,2.83S559,60.77,559,60.77,560.94,49,560.8,47s-.28-3-2.57-3.76-4.78,2.27-4.78,2.27-6.59,10.22-7.15,11.78l-.35.64-.34-.43s4.65-13.9.21-14.12-7.36,5-7.36,5S533.4,57,533.19,58l-.35-.43s2.08-10.07,1.67-12.55a2.23,2.23,0,0,0-2.71-2s-2.91-.36-3.68,1.56a142.25,142.25,0,0,0-3.88,18.66s-7.29,5.32-12.08,5.39-4.3-3.11-4.3-3.11,17.55-6.14,12.77-18.27c-2.15-3.12-4.65-4.1-8.19-4s-7.93,2.27-10.78,8.8a29.86,29.86,0,0,0-2.13,8.31s-3.07.64-4.74-.78-2.52,0-2.52,0-2.85,3.72,0,4.86a36,36,0,0,0,7.29,1.66h-.27a13.69,13.69,0,0,0,5.1,8.08c5.26,4.06,15.35-.37,15.35-.37l4.14-2.36S524,75.3,527,75.86s4.28,0,9.53-13c3.09-6.63,3.3-6.27,3.3-6.27l.35-.07s-2.38,12.68-1.48,16.1,4.91,3.06,4.91,3.06,2.18.42,3.93-5.84a92.67,92.67,0,0,1,5.11-13.18h.15s-1.46,12.66.77,16.69,8,1.36,8,1.36a41,41,0,0,0,4.65-2.66,16.36,16.36,0,0,0,11.52,3.33c15.06-3,20.42-7,20.42-7a12.42,12.42,0,0,0,10.6,7.18,17.58,17.58,0,0,0,14.15-5.08s-.07,3.76,3.13,5.08,5.34-6.11,5.34-6.11l5.34-14.76h.49s.28,9.79,5.55,11.35,12.14-3.65,12.14-3.65,1.67-.94,1.39-3.78Z" transform="translate(-0.03 -0.39)"></path><g><path class="cls-7" d="M116,52c0-7.69-9.62-15-24.37-19.48,3.4-15,1.89-27-4.78-30.83A10.31,10.31,0,0,0,81.56.39V5.86a9.77,9.77,0,0,1,2.51.61c3.2,1.84,4.59,8.83,3.51,17.82-.26,2.21-.68,4.54-1.2,6.92a114.85,114.85,0,0,0-14.94-2.57,115.36,115.36,0,0,0-9.8-11.76c7.68-7.13,19.92-11,19.92-11V.57c-6.5,0-15,4.63-23.61,12.66C49.35,5.24,40.85.66,34.35.66V5.73c4.89,0,12.15,3.9,19.86,11a112.09,112.09,0,0,0-9.77,11.79,110.45,110.45,0,0,0-15,2.6c-.54-2.36-.95-4.65-1.23-6.85-1.11-9,.26-16,3.45-17.92a5.22,5.22,0,0,1,2.72-.62V.48A10.51,10.51,0,0,0,29,1.81c-6.64,3.83-8.13,15.76-4.71,30.75C9.6,37.1,0,44.36,0,52S9.65,67,24.4,71.49c-3.41,15-1.89,27,4.77,30.83a10.4,10.4,0,0,0,5.32,1.32c6.5,0,15-4.63,23.62-12.67,8.6,8,17.11,12.58,23.61,12.58a10.64,10.64,0,0,0,5.35-1.32c6.64-3.83,8.13-15.77,4.7-30.76C106.43,67,116,59.68,116,52ZM85,36.32c-.87,3-2,6.16-3.18,9.29-1-1.88-2-3.76-3.08-5.64s-2.24-3.72-3.39-5.51C78.73,35,82,35.56,85,36.32ZM74.26,61.38c-1.84,3.18-3.72,6.19-5.67,9q-5.27.47-10.64.47c-3.55,0-7.11-.16-10.59-.44q-2.94-4.2-5.7-9c-1.79-3.08-3.41-6.21-4.89-9.36,1.46-3.16,3.1-6.31,4.87-9.39s3.72-6.19,5.67-9c3.51-.31,7.06-.48,10.64-.48s7.11.17,10.59.45c1.95,2.8,3.86,5.79,5.7,9s3.41,6.21,4.89,9.36C77.65,55.15,76,58.3,74.26,61.38Zm7.6-3.06c1.27,3.16,2.36,6.31,3.25,9.37-3.08.75-6.33,1.39-9.7,1.88,1.16-1.81,2.31-3.67,3.39-5.57S80.9,60.21,81.86,58.32ZM58,83.44a98.61,98.61,0,0,1-6.55-7.53c2.12.09,4.29.16,6.48.16s4.4,0,6.54-.16A94,94,0,0,1,58,83.44ZM40.49,69.57c-3.35-.49-6.57-1.1-9.65-1.86.87-3,1.95-6.16,3.17-9.29,1,1.88,2,3.76,3.09,5.65S39.33,67.79,40.49,69.57Zm17.39-49a94.59,94.59,0,0,1,6.54,7.53C62.3,28,60.14,28,58,28s-4.4.05-6.54.17A88.48,88.48,0,0,1,57.88,20.6ZM40.46,34.46c-1.15,1.81-2.3,3.67-3.39,5.58S35,43.8,34,45.68c-1.27-3.15-2.35-6.3-3.24-9.36C33.85,35.59,37.1,35,40.46,34.46ZM19.16,63.93C10.83,60.37,5.44,55.71,5.44,52s5.39-8.38,13.72-11.91c2-.87,4.24-1.65,6.52-2.38A112.86,112.86,0,0,0,31,52.06a111.4,111.4,0,0,0-5.23,14.27C23.42,65.6,21.21,64.8,19.16,63.93ZM31.82,97.56c-3.2-1.84-4.59-8.83-3.5-17.82.26-2.21.68-4.54,1.2-6.92a114.85,114.85,0,0,0,14.94,2.57,116.79,116.79,0,0,0,9.79,11.77c-7.67,7.13-14.87,11-19.77,11A5.59,5.59,0,0,1,31.82,97.56ZM87.65,79.62c1.11,9-.26,16-3.43,17.84a5.2,5.2,0,0,1-2.71.62c-4.87,0-12.1-3.89-19.77-11a111.26,111.26,0,0,0,9.72-11.75,108.32,108.32,0,0,0,15-2.59A66.59,66.59,0,0,1,87.65,79.62Zm9.06-15.69c-2,.87-4.23,1.64-6.52,2.37A112.75,112.75,0,0,0,84.9,52a112.7,112.7,0,0,0,5.22-14.26c2.33.73,4.55,1.53,6.62,2.4,8.33,3.55,13.72,8.21,13.72,11.91S105,60.39,96.71,63.93Z" transform="translate(-0.03 -0.39)"></path><circle class="cls-7" cx="57.9" cy="51.63" r="10.76"></circle></g><g><g id="path14"><path class="cls-8" d="M322.72,5,310.05,26.94,297.38,5H255.2l54.85,95L364.9,5Z" transform="translate(-0.03 -0.39)"></path></g><g id="path18"><path class="cls-9" d="M322.72,5,310.05,26.94,297.38,5H277.14l32.91,57L343,5Z" transform="translate(-0.03 -0.39)"></path></g></g></svg> 