
<svg width="100" height="33" viewBox="0 0 100 33" xmlns="http://www.w3.org/2000/svg"><g fill="none" fill-rule="evenodd"><path d="M2.858 9.347c.56.55 1.584.825 2.05.825 1.256 0 3.025-1.374 3.025-3.067 0-1.145-.884-3.113-2.7-3.113-.931 0-1.955.412-2.514.96-.605.596-.838 1.557-.838 2.153 0 1.052.419 1.739.977 2.242m22.642 0c.558.55 1.583.825 2.048.825 1.257 0 3.026-1.374 3.026-3.067 0-1.145-.884-3.113-2.7-3.113-.932 0-1.956.412-2.514.96-.605.596-.838 1.557-.838 2.153 0 1.052.419 1.739.978 2.242m21.232 20.907c-.419.55-1.118 1.028-1.753 1.11-1.596.18-3.725-1.51-4.61-4.623-.371-1.145-.558-3.02-.558-4.532 0-3.295.745-5.172 1.77-6.088.605-.594 1.164-.823 1.908-.823 1.35 0 2.328.823 3.026 1.877 1.304 1.968 1.676 5.126 1.676 6.82 0 2.929-.574 5.07-1.459 6.26m-2.358-16.56c-3.632 0-6.378 1.603-7.729 2.747-1.769 1.465-3.212 4.028-3.212 7.05 0 2.745 1.49 5.492 3.492 7.094 1.722 1.419 4.47 2.37 6.564 2.38 2.307.01 4.795-.595 6.704-1.876 1.724-1.1 4.238-3.846 4.238-7.736 0-6.043-5.401-9.658-10.057-9.658M7.863 29.543l-.006-.238c-.013-.476-.037-1.498-.037-1.498-.025-1.333-.05-3.194-.065-4.918.009-1.467.026-3.197.053-4.767.012-.708.027-1.382.044-1.985.023-.803.05-1.48.082-1.937 0-.164-.186-.472-.39-.504a.214.214 0 0 0-.076 0c-.745.183-4.05 1.327-6.052 1.694a3.594 3.594 0 0 0-.371.08c-.392.107-.694.267-.866.447-.131.115-.179.225-.179.342 0 .275.326.55.605.87.838.778 1.397 1.282 1.443 1.647.093.55.093 1.282.093 2.655 0 .826-.003 1.624-.01 2.38-.016 1.619-.054 2.959-.078 3.996a56.269 56.269 0 0 0-.021 1.355c0 1.08-.555 3.352 1.347 3.303l.148-.005v.004l.339-.014.23-.012.195-.007c.15-.004.294-.008.429-.01h.002l.119-.002.099-.001c.197.002.422.006.667.013l.164.007a17.301 17.301 0 0 0 .58.026v-.004c.051.002.099.007.15.005 1.79-.051 1.437-1.766 1.362-2.922m11.287-.341l-.039-1.556-.002-.125a1.885 1.885 0 0 1-.003-.08c-.05-1.696-.058-1.774-.058-2.695v-.213A187.6 187.6 0 0 1 19 20.837c0-2.308.024-5.016.06-7.694l.005-.365c.08-5.586.214-10.953.307-12.173 0-.184-.318-.65-.479-.602-3.112.947-4.947 1.39-6.855 1.894-.513.137-1.048.463-1.048.793 0 .229.199.624 1.114 1.395.816.741 1.069.933 1.108 1.694.047 1.327.062 5.399.062 7.367l-.002 1.081v.35a463.577 463.577 0 0 1-.058 6.296v.151c0 .858-.004 1.687-.011 2.471-.017 1.682-.056 3.074-.081 4.15 0 .041-.002.078-.003.117a61.25 61.25 0 0 0-.019 1.292c0 1.104-.556 3.403 1.306 3.43.031 0 .061.002.094 0l.153-.005v.004a480.137 480.137 0 0 0 .591-.026l.202-.007c.156-.005.306-.01.446-.011h.002a5.268 5.268 0 0 1 .227-.003c.066 0 .137 0 .21.002.15.002.311.006.482.012l.17.006a22.428 22.428 0 0 0 .605.022c.05.003.101.008.153.007 1.86-.054 1.493-1.835 1.415-3.036l-.006-.247m11.37.341l-.007-.238-.037-1.498a563.28 563.28 0 0 1-.065-4.918c.01-1.467.026-3.197.053-4.767.013-.708.028-1.382.044-1.985.024-.803.05-1.48.082-1.937 0-.164-.185-.472-.39-.504a.214.214 0 0 0-.075 0c-.745.183-4.05 1.327-6.053 1.694a3.594 3.594 0 0 0-.37.08c-.392.107-.694.267-.866.447-.132.115-.18.225-.18.342 0 .275.327.55.606.87.838.778 1.397 1.282 1.443 1.647.093.55.093 1.282.093 2.655 0 .826-.004 1.624-.01 2.38-.017 1.619-.054 2.959-.078 3.996a56.269 56.269 0 0 0-.021 1.355c0 1.08-.555 3.352 1.347 3.303l.148-.005v.004l.338-.014.23-.012.196-.007c.15-.004.294-.008.428-.01h.002l.12-.002.099-.001c.197.002.422.006.667.013l.163.007c.086.004.176.01.243.012l.34.014v-.004c.049.002.096.007.147.005 1.79-.051 1.437-1.766 1.363-2.922m45.041 0a907.02 907.02 0 0 1-.043-1.736l-.015-.912a129.99 129.99 0 0 1-.019-1.756c0-1.01.007-2.54.023-4.161-.016-2.296-.663-4.23-1.674-5.405a5.557 5.557 0 0 0-1.292-1.066c-.749-.448-1.753-.811-3.038-.811-2.188 0-3.91 1.007-5.774 2.426-.02.02-.094.029-.171.012-.099-.021-.2-.087-.2-.241 0-.413.038-1.162.038-1.482 0-.07-.046-.586-.126-.711-.129-.204-.34-.338-.486-.338-.232 0-.876.32-1.755.7-.491.213-1.847.63-2.798.924-2.042.613-2.507.907-2.507 1.273 0 .275.326.55.605.87.839.778 1.397 1.282 1.444 1.647.093.55.093 1.282.093 2.655a235.013 235.013 0 0 1-.038 4.177c-.017.839-.037 1.574-.051 2.199-.012.533-.02.988-.02 1.355 0 1.08-.556 3.352 1.346 3.303l.149-.005v.004l.338-.014.243-.012.163-.007c.246-.007.47-.011.668-.013.197.002.422.006.667.013l.164.007c.085.004.175.01.243.012l.338.014v-.004c.05.002.098.007.148.005 1.79-.051 1.438-1.766 1.363-2.922-.002-.036-.044-1.736-.044-1.736a534.193 534.193 0 0 1-.074-6.182c.01-1.085.035-3.022.042-3.323.006-.302.163-.665.405-.899.241-.233 1.117-.64 2.56-.64.978 0 2.002.457 2.515.96.698.688.884 1.878.884 2.426 0 .816-.018 3.308-.053 5.459 0 0-.056 1.574-.07 2.199-.009.365-.016.692-.019.98l-.002.375c0 1.08-.554 3.346 1.34 3.303h.064l.09-.003v.002l.34-.014.157-.008.306-.01c.229-.007.441-.012.63-.014.192.002.41.007.647.013l.164.007c.086.004.176.01.243.012l.339.014v-.004c.05.002.098.007.147.005 1.79-.051 1.438-1.766 1.363-2.922" fill="#036"/><path d="M98.266 30.77c-1.07-.274-2.049-.87-2.98-2.242-1.396-2.243-3.957-6.18-4.33-7.095-.046-.092 0-.23.047-.274a84.454 84.454 0 0 1 3.213-3.617c1.117-1.236 2.28-1.968 3.863-2.334.792-.32.932-.458.932-.779 0-.365-.466-.548-1.07-.548-.84 0-2.283.229-3.54.229-.93 0-2.327-.092-2.886-.092-.512 0-.978.275-.978.595 0 .32.14.55 1.397.916.838.228.978.777.513 1.464-.556.909-1.074 1.515-2.04 2.78-.007.01-.115.166-.155.205-.067.066-.224.074-.294-.009-.044-.055-.06-.084-.088-.123-.024-.03-.048-.067-.072-.1-.806-1.075-2.054-3.144-2.054-3.577 0-.275.047-.412.791-.732.652-.275.792-.412.792-.779 0-.412-.513-.594-1.024-.594-.838 0-1.816.046-2.933.046-2.375 0-4.423-.23-5.54-.23-.607 0-1.351.23-1.351.641 0 .55.465.687 1.396.962.932.274 1.77.823 2.794 2.288 1.443 2.198 3.352 5.538 3.585 6.133.14.32.14.412.046.55-1.443 1.968-2.932 3.661-3.957 4.623-1.117 1.007-1.816 1.51-3.259 1.876-.326.092-1.071.367-1.071.825 0 .594.978.594 1.443.594 1.35 0 2.375-.182 4.051-.182.745 0 1.21.09 2.282.09.418 0 1.07-.228 1.07-.548 0-.32-.279-.55-.652-.687-1.443-.503-1.629-.961-1.629-1.465 0-.503 1.35-2.38 2.514-3.845.093-.091.279-.045.326.046.931 1.465 1.35 2.106 2.095 3.342.699 1.281.28 1.464-.559 1.693-.744.183-1.07.458-1.07.87 0 .32.558.641 1.024.641 1.07 0 2.188-.137 3.212-.137 1.164 0 5.96.182 6.192.182.559 0 1.21-.32 1.21-.778 0-.32-.232-.55-1.256-.823" fill="#D81622"/></g></svg>
