<?xml version="1.0" encoding="utf-8"?>
<!-- Generator: Adobe Illustrator 22.1.0, SVG Export Plug-In . SVG Version: 6.00 Build 0)  -->
<svg version="1.1" id="Laag_1" xmlns="http://www.w3.org/2000/svg" xmlns:xlink="http://www.w3.org/1999/xlink" x="0px" y="0px"
	 viewBox="0 0 528.8 194.1" style="enable-background:new 0 0 528.8 194.1;" xml:space="preserve">
<style type="text/css">
	.st0{fill:#0D1348;}
	.st1{fill:#BF883B;}
</style>
<g>
	<path class="st0" d="M85.6,162.1v-15.9h53.7c0,0,6.9,0,6.9-6.9v-11.7v-109V6.9c0,0,0-6.9-6.9-6.9H6.9C6.4,0,0,0,0,6.9v11.7v109.5
		v11.7l0,0c0,0.5,0.5,6.9,6.9,6.9h53.7v15.9c0,0,0,6.9,6.9,6.9h11.7C78.7,169,85.6,169,85.6,162.1L85.6,162.1z M25,120.7V25h95.7
		v95.7H85.6v-18.1c0,0,0-6.9-6.9-6.9H67c0,0-6.9,0-6.9,6.9v18.1L25,120.7L25,120.7z"/>
	<path class="st0" d="M197.2,0c-0.5,0-6.9,0-6.9,6.9v11.7v120.7c0,0,0,6.9,6.9,6.9h11.7c0,0,6.9,0,6.9-6.9V25.5h95.7v113.8
		c0,0,0,6.9,6.9,6.9h11.7c0,0,6.9,0,6.9-6.9V18.6V6.9c0,0,0-6.9-6.9-6.9L197.2,0L197.2,0z"/>
	<path class="st0" d="M520.3,0h-11.7c-0.5,0-6.9,0-6.9,6.9v53.7H406V6.9c0,0,0-6.9-6.9-6.9h-11.7c-0.5,0-6.9,0-6.9,6.9v60.6v11.7
		v60.6c0,0,0,6.9,6.9,6.9h11.7c0,0,6.9,0,6.9-6.9V85.6h95.7v53.7c0,0,0,6.9,6.9,6.9h11.7c0,0,6.9,0,6.9-6.9V78.7V67V6.9
		C527.2,6.9,527.2,0,520.3,0L520.3,0z"/>
</g>
<path class="st1" d="M115.9,184.5h3.7c2.7,0,4.8,0,6.9-1.6c1.6-1.6,2.7-3.7,2.7-6.4s-1.1-4.8-3.2-5.8c-2.1-1.6-4.3-1.6-6.4-1.6h-9
	V193h5.8v-8.5H115.9z M115.9,180.2v-6.4h3.2c1.1,0,2.1,0,3.2,0.5c0.5,0.5,1.1,1.6,1.1,2.7c0,0.5,0,1.6-0.5,2.1
	c-1.1,1.1-2.1,1.1-3.2,1.1L115.9,180.2L115.9,180.2z M149.9,169H143l-8,23.9h4.8l1.6-4.8h8l1.6,4.8h5.8L149.9,169L149.9,169z
	 M143.5,183.9l2.7-8.5l2.7,8.5H143.5L143.5,183.9z M172.7,183.9h4.3l3.7,9.6h6.4l-4.3-10.6c2.7-1.1,4.3-3.7,4.3-6.4
	c0-2.1-1.1-4.8-3.2-5.8c-2.1-1.1-4.3-1.1-6.4-1.1h-10.1v23.9h5.8v-9.6H172.7z M172.7,173.3h3.2c1.1,0,2.7,0,3.7,0.5s1.6,1.6,1.6,2.7
	s-0.5,2.1-1.6,2.7c-1.1,0.5-2.1,0.5-3.2,0.5h-3.2v-6.4H172.7z M213.7,169h-18.1v4.8h6.4v19.1h5.8v-19.1h5.8L213.7,169L213.7,169z
	 M242.4,169h-4.3v14.4l0,0l-8-14.4h-5.8v23.9h3.7v-16.5l0,0l9,16.5h4.8V169L242.4,169L242.4,169z M271.1,173.8V169h-17v23.9h17v-4.8
	h-11.2v-5.3h9V178h-9v-4.7h11.2V173.8z M287.5,183.9h4.3l3.7,9.6h6.4l-4.3-10.6c2.7-1.1,4.3-3.7,4.3-6.4c0-2.1-1.1-4.8-3.2-5.8
	c-2.1-1.1-4.3-1.1-6.4-1.1h-10.1v23.9h5.8v-9.6H287.5z M287.5,173.3h3.2c1.1,0,2.7,0,3.7,0.5c1.1,0.5,1.6,1.6,1.6,2.7
	s-0.5,2.1-1.6,2.7c-1.1,0.5-2.1,0.5-3.2,0.5H288v-6.4H287.5z M329.5,174.4c-1.6-4.3-4.8-5.8-9-5.8c-2.1,0-4.3,0.5-5.8,2.1
	c-1.6,1.6-2.7,3.2-2.7,5.8c0,5.3,4.3,6.4,8.5,7.4c1.6,0.5,4.3,0.5,4.3,2.7c0,2.1-2.1,2.7-3.7,2.7c-2.7,0-4.3-1.1-4.8-3.2l-5.3,1.1
	c1.1,4.8,5.3,6.9,9.6,6.9c2.7,0,5.3-0.5,6.9-2.1c2.1-1.6,3.2-3.7,3.2-5.8c0-2.7-1.1-4.3-3.2-5.8c-1.6-1.1-4.3-1.6-6.4-2.1
	c-1.6,0-3.7-0.5-3.7-2.7s1.6-2.1,3.2-2.1c2.1,0,3.2,1.1,4.3,2.7L329.5,174.4L329.5,174.4z M359.3,169h-5.8v9.6H346V169h-5.8v23.9
	h5.8v-10.1h7.4v10.1h5.8V169H359.3z M376.3,169h-5.8v23.9h5.8V169L376.3,169z M392.2,184.5h3.7c2.7,0,4.8,0,6.9-1.6
	c1.6-1.6,2.7-3.7,2.7-6.4s-1.1-4.8-3.2-5.8c-2.1-1.6-4.3-1.6-6.4-1.6h-9V193h5.8v-8.5H392.2z M392.2,180.2v-6.4h3.2
	c1.1,0,2.1,0,3.2,0.5c0.5,0.5,1.1,1.6,1.1,2.7c0,0.5,0,1.6-0.5,2.1c-1.1,1.1-2.1,1.1-3.2,1.1L392.2,180.2L392.2,180.2z M439.6,169
	h-5.8v23.9h5.8V169L439.6,169z M467.7,169h-4.3v14.4l0,0l-8-14.4h-5.8v23.9h4.3v-16.5l0,0l9,16.5h4.8V169L467.7,169z M503.3,169
	h-5.8v23.9h5.8V169L503.3,169z M528.8,169h-18.1v4.8h6.4v19.1h5.8v-19.1h5.8L528.8,169L528.8,169z"/>
</svg>
