<?xml version="1.0" encoding="UTF-8" standalone="no"?>
<svg xmlns:dc="http://purl.org/dc/elements/1.1/" xmlns:cc="http://creativecommons.org/ns#" xmlns:rdf="http://www.w3.org/1999/02/22-rdf-syntax-ns#" xmlns:svg="http://www.w3.org/2000/svg" xmlns="http://www.w3.org/2000/svg" xmlns:sodipodi="http://sodipodi.sourceforge.net/DTD/sodipodi-0.dtd" xmlns:inkscape="http://www.inkscape.org/namespaces/inkscape" width="360" height="424" viewBox="0 0 360 424" id="svg2" version="1.1" inkscape:version="0.91 r13725" sodipodi:docname="grunt-logo.svg">
    <metadata id="metadata102">
        <rdf:RDF>
            <cc:Work rdf:about="">
                <dc:format>image/svg+xml</dc:format>
                <dc:type rdf:resource="http://purl.org/dc/dcmitype/StillImage" />
            </cc:Work>
        </rdf:RDF>
    </metadata>
    <defs id="defs100" />
    <sodipodi:namedview pagecolor="#ffffff" bordercolor="#666666" borderopacity="1" objecttolerance="10" gridtolerance="10" guidetolerance="10" inkscape:pageopacity="0" inkscape:pageshadow="2" inkscape:window-width="1302" inkscape:window-height="1086" id="namedview98" showgrid="false" inkscape:zoom="0.78716" inkscape:cx="166.18" inkscape:cy="412.04" inkscape:window-x="3322" inkscape:window-y="265" inkscape:window-maximized="0" inkscape:current-layer="svg2" />
    <path d="M 20.778,56.5 176.65,0.97001 336.71,55.52 335.1,68.4 333.48,81.28 331.85,94.17 296.56,110.61 325.68,132.59 327,132.83 325.38,145.74 323.75,158.62 322.15,171.49 320.51,184.4 320.58,185.48 292.28,202.25 315.66,223.07 314.04,235.96 312.42,248.84 310.8,261.72 176.65,336.02 44.596,262.71 43.104,249.83 41.618,236.92 40.133,224.03 64.224,205.18 35.888,185.21 35.664,185.38 34.172,172.49 32.687,159.61 31.201,146.71 29.709,133.83 29.485,133.99 56.027,112.6 25.241,95.15 23.755,82.27 22.264,69.39 Z" id="path4190" style="fill:#f1dd3f;fill-opacity:1" inkscape:connector-curvature="0" sodipodi:nodetypes="ccccccccccccccccccccccccccccccccccccc" />
    <path d="M 336.71,55.52 176.65,0.97001 176.65,336.02 310.8,261.86 312.42,248.96 314.04,236.06 315.66,223.16 293.46,203.2 319.73,186 320.09,185.31 322.15,171.58 323.75,158.67 325.38,145.77 327,132.88 326.93,133.04 295.05,110.21 331.85,94.19 333.48,81.3 335.1,68.4 Z" id="path4192" style="fill:#f9ed8b;fill-opacity:1" inkscape:connector-curvature="0" sodipodi:nodetypes="cccccccccccccccccccc" />
    <path style="fill:#000000;fill-opacity:0.14465;fill-rule:evenodd;stroke:none;stroke-width:0.1088px;stroke-linecap:butt;stroke-linejoin:miter;stroke-opacity:1" d="M 289.65,205.74 176.57,238.73 176.54,222.05 319.1,185.7 Z" id="path4957" inkscape:connector-curvature="0" sodipodi:nodetypes="ccccc" />
    <path style="fill:#ffffff;fill-opacity:0.25157;fill-rule:evenodd;stroke:none;stroke-width:0.1088px;stroke-linecap:butt;stroke-linejoin:miter;stroke-opacity:1" d="M 315.16,223.56 175.93,268.19 176.49,238.55 293.51,203.17 Z" id="path4959" inkscape:connector-curvature="0" sodipodi:nodetypes="ccccc" />
    <path style="fill:#ffffff;fill-opacity:0.25157;fill-rule:evenodd;stroke:none;stroke-width:0.1088px;stroke-linecap:butt;stroke-linejoin:miter;stroke-opacity:1" d="M 327.81,134.92 176.03,111.12 176.57,85.06 297.95,111.05 Z" id="path4959-6" inkscape:connector-curvature="0" sodipodi:nodetypes="ccccc" />
    <path style="fill:#000000;fill-opacity:0.14465;fill-rule:evenodd;stroke:none;stroke-width:0.1088px;stroke-linecap:butt;stroke-linejoin:miter;stroke-opacity:1" d="M 296.86,110.79 176.55,84.99 176.52,59.82 330.94,93.96 Z" id="path4957-0" inkscape:connector-curvature="0" sodipodi:nodetypes="ccccc" />
    <path style="fill:#ffffff;fill-opacity:0.25157;fill-rule:evenodd;stroke:none;stroke-width:0.1088px;stroke-linecap:butt;stroke-linejoin:miter;stroke-opacity:1" d="M 176.22,268.05 40.894,223.19 64.498,205.23 176.27,238.69 Z" id="path4959-62" inkscape:connector-curvature="0" sodipodi:nodetypes="ccccc" />
    <path style="fill:#000000;fill-opacity:0.14465;fill-rule:evenodd;stroke:none;stroke-width:0.1088px;stroke-linecap:butt;stroke-linejoin:miter;stroke-opacity:1" d="M 176.25,238.42 63.567,204.79 36.371,185.58 176.69,222.34 Z" id="path4957-6" inkscape:connector-curvature="0" sodipodi:nodetypes="ccccc" />
    <path style="fill:#ffffff;fill-opacity:0.25157;fill-rule:evenodd;stroke:none;stroke-width:0.1088px;stroke-linecap:butt;stroke-linejoin:miter;stroke-opacity:1" d="M 176.65,111.19 30.702,133.22 56.076,112.49 176.63,85.02 Z" id="path4959-6-1" inkscape:connector-curvature="0" sodipodi:nodetypes="ccccc" />
    <path style="fill:#000000;fill-opacity:0.14465;fill-rule:evenodd;stroke:none;stroke-width:0.1088px;stroke-linecap:butt;stroke-linejoin:miter;stroke-opacity:1" d="M 176.52,85.04 56.274,111.97 25.394,95.34 176.12,60.32 Z" id="path4957-0-8" inkscape:connector-curvature="0" sodipodi:nodetypes="ccccc" />
    <path style="fill:#645f5f;fill-opacity:1" d="M 15.23,417.03 C 10.211,415.94 5.0341,411.82 2.9293,407.24 -2.1653,396.03 3.6815,383.18 15.305,380.16 19.799,378.97 24.395,379.44 28.263,381.46 29.66,382.17 29.742,382.34 29.742,384.71 L 29.742,387.18 26.297,385.53 C 23.086,384.04 22.631,383.93 19.553,384.12 15.381,384.41 12.518,385.62 9.863,388.36 5.8368,392.47 4.8129,399.22 7.2968,404.98 10.634,412.6 20.653,415.25 27.979,410.39 L 29.742,409.18 29.742,411.9 C 29.742,413.54 29.534,414.81 29.192,415.05 27.049,416.75 19.092,417.84 15.23,417.03 Z M 204.03,416.81 C 198.13,415.38 193.76,411.95 191.11,406.59 189.5,403.35 189.42,402.84 189.42,398.97 189.42,392.58 191.35,387.72 195.3,384.12 197.85,381.75 200.24,380.53 204.16,379.59 213.06,377.54 221.95,381.83 226.1,390.33 227.31,392.74 227.39,393.38 227.39,398.23 227.39,403.06 227.31,403.69 226.1,406.13 221.95,414.59 212.87,418.96 204.03,416.81 Z M 214.63,411.28 C 217.29,409.96 219.73,407.52 221.28,404.52 222.17,402.88 222.34,401.88 222.34,398.23 222.34,394.54 222.17,393.55 221.28,391.89 219.69,388.87 217.24,386.46 214.43,385.1 211.05,383.43 206.14,383.31 202.8,384.83 199.79,386.17 196.7,389.21 195.26,392.2 193.62,395.6 193.49,400.56 194.97,403.76 198.42,411.51 207.26,414.84 214.63,411.28 Z M 35.81,398.12 35.936,379.7 45.449,379.56 54.962,379.44 54.962,381.96 54.962,384.49 47.857,384.49 40.734,384.49 40.734,389.28 40.734,394.09 47.857,394.09 54.962,394.09 54.962,396.16 54.962,398.23 47.857,398.23 40.734,398.23 40.734,404.88 40.734,411.51 47.857,411.51 54.962,411.51 54.962,414.03 54.962,416.58 45.323,416.58 35.715,416.58 35.81,398.12 Z M 60.436,397.92 60.436,379.31 67.415,379.56 C 75.455,379.86 78.444,380.62 82.199,383.48 84.651,385.29 87.123,389 88.052,392.03 88.349,393.05 88.602,395.74 88.551,397.99 88.551,403.35 87.376,406.43 84.057,410.05 79.588,414.88 74.905,416.52 65.815,416.52 L 60.436,416.58 60.436,397.92 Z M 75.252,411.05 C 78.444,409.82 81.226,407.39 82.799,404.49 84.462,401.29 84.557,395.57 82.926,391.95 80.77,387.02 76.428,384.49 69.728,384.12 L 65.487,383.9 65.487,397.92 65.487,411.98 69.147,411.98 C 71.662,411.98 73.533,411.68 75.252,411.05 Z M 93.918,397.92 93.918,379.31 100.85,379.56 C 108.93,379.86 111.89,380.62 115.63,383.48 118.07,385.29 120.55,389 121.48,392.03 121.78,393.05 122.03,395.74 122.03,397.99 121.98,403.35 120.81,406.43 117.47,410.05 113.01,414.88 108.33,416.52 99.259,416.52 L 93.918,416.58 93.918,397.92 Z M 108.68,411.05 C 111.89,409.82 114.7,407.39 116.21,404.49 117.9,401.29 117.99,395.57 116.39,391.95 114.2,387.02 109.89,384.49 103.18,384.12 L 98.917,383.9 98.917,397.92 98.917,411.98 102.58,411.98 C 105.11,411.98 106.95,411.68 108.68,411.05 Z M 126.4,398.23 126.4,379.89 128.91,379.89 131.45,379.89 131.45,395.69 131.45,411.51 136.92,411.51 142.45,411.51 142.45,414.03 142.45,416.58 134.41,416.58 126.4,416.58 126.4,398.23 Z M 164.87,398.18 164.87,379.83 171.88,380 C 178.44,380.12 178.97,380.2 180.91,381.32 183.47,382.84 184.97,385.36 185.32,388.95 185.85,393.99 183.56,398.09 179.32,399.84 178.3,400.27 175.9,400.73 173.93,400.88 L 170.39,401.1 170.39,408.83 170.39,416.58 167.64,416.58 164.87,416.58 164.87,398.18 Z M 176.42,396.36 C 179.94,395.39 181.64,391.56 180.21,387.85 179.11,384.98 177.41,384.04 173.46,384.04 L 170.39,384.04 170.39,390.43 170.39,396.86 172.53,396.86 C 173.76,396.86 175.49,396.63 176.42,396.36 Z M 233.11,398.23 233.11,379.89 235.64,379.89 238.17,379.89 238.17,395.69 238.17,411.51 243.66,411.51 249.13,411.51 249.13,414.03 249.13,416.58 241.1,416.58 233.11,416.58 233.11,398.23 Z M 265.18,408.36 265.18,400.15 259.26,389.93 253.32,379.7 255.62,379.52 C 256.94,379.44 258.22,379.47 258.48,379.59 258.84,379.72 260.98,383.23 263.36,387.44 267.06,394.09 267.67,394.93 268.15,394.22 268.43,393.8 270.45,390.33 272.52,386.65 274.65,382.89 276.58,379.72 276.85,379.59 277.19,379.47 278.46,379.44 279.7,379.52 L 282.02,379.7 276.11,389.88 270.18,400.06 270.18,408.31 270.18,416.58 267.7,416.58 265.18,416.58 265.18,408.36 Z M 287.72,398.12 287.86,379.7 296.91,379.56 305.93,379.44 305.93,381.96 305.93,384.49 299.29,384.49 292.65,384.49 292.74,389.17 292.9,393.88 299.41,394 305.93,394.14 305.93,396.19 305.93,398.23 299.29,398.23 292.65,398.23 292.65,407.39 292.65,416.58 290.18,416.58 287.65,416.58 287.72,398.12 Z M 311.87,398.23 311.87,379.89 314.19,379.89 316.46,379.89 316.46,398.23 316.46,416.58 314.19,416.58 311.87,416.58 311.87,398.23 Z M 323.34,398.23 323.34,379.89 325.86,379.89 328.36,379.89 328.36,395.69 328.36,411.51 333.89,411.51 339.38,411.51 339.38,414.03 339.38,416.58 331.36,416.58 323.34,416.58 323.34,398.23 Z M 344.43,398.23 344.43,379.89 346.94,379.89 349.51,379.89 349.51,395.69 349.51,411.51 354.97,411.51 360.48,411.51 360.48,414.03 360.48,416.58 352.43,416.58 344.43,416.58 344.43,398.23 Z M 147.48,401.41 147.48,399.14 153.43,399.14 159.37,399.14 159.37,401.41 159.37,403.73 153.43,403.73 147.48,403.73 147.48,401.41 Z" id="path5235" inkscape:connector-curvature="0" />
</svg>
