<?xml version="1.0" standalone="no"?>
<!DOCTYPE svg PUBLIC "-//W3C//DTD SVG 20010904//EN"
 "http://www.w3.org/TR/2001/REC-SVG-20010904/DTD/svg10.dtd">
<svg version="1.0" xmlns="http://www.w3.org/2000/svg"
 width="700.000000pt" height="700.000000pt" viewBox="0 0 700.000000 700.000000"
 preserveAspectRatio="xMidYMid meet">
<metadata>
Created by potrace 1.14, written by Peter Selinger 2001-2017
</metadata>
<g transform="translate(0.000000,700.000000) scale(0.100000,-0.100000)"
fill="#000000" stroke="none">
<path d="M3490 6570 c-56 -7 -100 -21 -350 -110 -80 -29 -156 -56 -170 -60
-14 -5 -70 -25 -125 -45 -55 -20 -104 -38 -110 -39 -5 -2 -17 -6 -25 -9 -16
-7 -259 -94 -300 -107 -14 -5 -74 -26 -135 -48 -188 -67 -426 -152 -515 -183
-47 -17 -101 -36 -120 -44 -19 -7 -89 -32 -155 -55 -66 -23 -160 -57 -210 -75
-49 -18 -182 -65 -295 -105 -252 -89 -262 -93 -294 -130 -31 -38 -40 -82 -31
-157 19 -162 25 -215 30 -258 9 -67 15 -117 21 -180 9 -91 12 -108 26 -121 7
-7 130 -79 273 -159 143 -81 265 -152 270 -157 7 -6 3 -15 -11 -26 -396 -317
-464 -375 -459 -396 2 -11 7 -46 10 -76 7 -72 14 -138 20 -175 2 -16 7 -59 10
-95 3 -36 8 -74 10 -86 3 -11 7 -51 11 -88 3 -37 7 -77 9 -88 2 -11 7 -47 10
-81 3 -34 8 -73 10 -87 2 -14 7 -54 11 -90 3 -36 8 -68 10 -72 3 -4 112 -82
244 -173 132 -92 248 -174 259 -183 20 -17 14 -22 -185 -177 -112 -88 -212
-166 -221 -172 -15 -12 -15 -24 1 -160 9 -82 18 -164 20 -183 5 -51 17 -151
22 -180 2 -14 6 -54 10 -90 3 -36 12 -77 20 -92 15 -28 63 -78 76 -78 4 0 42
-20 84 -45 41 -25 78 -45 80 -45 3 0 42 -21 87 -47 45 -25 107 -60 137 -76 30
-16 65 -36 77 -43 28 -18 69 -40 168 -94 44 -23 85 -46 90 -50 6 -4 42 -24 80
-45 39 -21 185 -102 325 -180 140 -78 282 -157 315 -175 33 -18 110 -61 170
-95 61 -34 141 -78 178 -99 37 -20 82 -45 100 -55 87 -48 138 -76 197 -109 36
-19 70 -38 75 -43 6 -4 41 -17 79 -29 92 -30 224 -25 306 12 30 14 316 170
635 348 319 177 609 338 645 358 36 19 70 38 75 42 6 4 42 24 80 45 39 21 167
92 285 158 215 119 242 134 355 197 129 71 180 106 196 135 18 30 23 66 74
515 8 74 17 145 20 157 7 29 8 28 -233 217 -111 88 -201 163 -200 167 2 4 118
87 258 184 140 98 256 178 257 179 3 3 60 483 79 666 2 25 6 54 8 65 6 33 20
168 20 205 1 33 -7 41 -236 225 -130 104 -237 192 -238 195 0 3 126 77 280
164 154 87 282 166 284 175 3 9 7 43 11 76 6 60 12 110 20 175 3 19 7 67 11
105 3 39 8 72 9 75 5 8 18 173 17 199 -3 35 -40 89 -74 107 -29 15 -152 61
-333 124 -44 15 -498 177 -1010 360 -511 182 -1023 365 -1136 405 -248 88
-283 96 -379 85z"/>
</g>
</svg>
