<svg version="1" xmlns="http://www.w3.org/2000/svg" width="1184" height="1184" viewBox="0 0 888.000000 888.000000"><path d="M437.5 20c-2 1-41 14.8-56.5 20.2-4.7 1.6-10.7 3.8-13.5 4.8-2.7 1-12.9 4.6-22.5 8-9.6 3.4-19.1 6.8-21 7.5-1.9.8-17.7 6.4-35 12.6-17.3 6.1-46.6 16.5-65 23.1-18.4 6.6-37.1 13.2-41.5 14.8-4.4 1.5-17.7 6.2-29.5 10.4-11.8 4.3-28.5 10.2-37 13.3-8.5 3-20.9 7.4-27.5 9.8-6.7 2.4-14 4.9-16.3 5.7l-4.2 1.3.5 5.5c.3 3 .8 6.6 1 8 .3 1.4.7 5.6 1.1 9.5.3 3.8.8 7.7.9 8.6.3 1.5.6 4.3 2 16.4.3 2.7.8 6.6 1 8.5.3 1.9.7 6 1 9 .3 3 .8 6.6 1 8 .3 1.4.7 5.6 1 9.5.4 3.8.8 7.7 1.1 8.5.4 1.3 8.5 6.2 34.4 20.6 13.3 7.4 36.6 20.8 37.7 21.6.8.7-5.5 6.4-21.3 19.1-12.4 10-26.5 21.4-31.2 25.2-6 4.8-8.7 7.7-8.6 9 .2 3 2.5 22.1 2.9 24.6.2.8.6 4.9 1 9 .3 4.1.8 8.1 1 8.9.2.8.6 4.5 1 8.2.3 3.7.8 7.7 1 9 .3 2.1.9 7.6 2 17.8.9 8.5 3.7 31.7 4 33.5.2 1.1.4 3.6.4 5.6.1 3.4.7 4.1 7.7 9 4.2 3 8.3 5.8 9.2 6.4.9.5 2.1 1.4 2.8 2 .6.5 11.5 8.2 24.2 17s23.3 16.6 23.7 17.4c.3.8 0 1.8-.7 2.2-1.4.8-39 29.9-39.8 30.9-.3.3-2.3 1.8-4.5 3.5-9.1 6.7-11.7 9.3-11.1 11.3.2 1 .8 4.8 1.2 8.7.4 3.8.8 7.9 1 9 .1 1.1.5 4.7.8 8 .4 3.3.9 7.6 1.1 9.5.5 3.5 1.2 9.7 1.9 15.5.2 1.6.7 5.9 1.1 9.5.4 3.6.9 7.8 1.1 9.5.2 1.6.6 5.6 1 8.7.3 3.1.7 6.5.9 7.5.2 1 .4 2.3.4 2.9.1.7 17.8 11 39.3 23 21.6 12 40.7 22.6 42.5 23.5 1.8 1 6.3 3.5 10 5.5s7.3 4 7.8 4.4c.6.4 4 2.3 7.6 4.3 3.7 2 14.3 7.8 23.5 13 9.3 5.2 19 10.6 21.6 12 2.6 1.5 8.4 4.7 12.8 7.2 4.3 2.5 8.2 4.5 8.5 4.5.3 0 2.2 1 4.3 2.3 2 1.3 6.9 4.1 10.7 6.2 3.9 2.1 10.4 5.7 14.5 8s10 5.6 13 7.2c3 1.7 9.8 5.4 15 8.4 5.2 2.9 11.3 6.2 13.5 7.5 2.2 1.2 6.9 3.8 10.3 5.8 3.5 2 6.5 3.6 6.7 3.6.2 0 3 1.5 6.2 3.4 3.2 1.8 8.7 4.9 12.3 6.9 3.6 1.9 13 7.1 20.9 11.6 7.9 4.5 14.5 8.1 14.6 8.1.3 0 25.8-14 74.9-41.2 25.9-14.4 63.8-35.3 84.1-46.6 20.4-11.2 49.6-27.4 65-36 15.4-8.5 29.8-16.5 32-17.7 51.5-28.2 64.5-35.8 65-37.8.2-1.2 1.4-10.1 2.5-19.7 1.2-9.6 2.3-18.6 2.5-20 .2-1.4.7-5 1-8 .3-3 .8-6.6 1-8 .2-1.4.6-4.8 1-7.5.9-7.7 2.5-20.7 3-24.2.5-3.3 1.3-2.5-23.6-24.7-2.5-2.3-8.6-7.7-13.5-12.2-4.9-4.4-10.4-9.4-12.3-11l-3.3-3 20.8-13.7c11.5-7.5 26-17 32.3-21.1 9.9-6.4 11.5-7.8 11.6-10.3.3-3.5 1.4-13.1 1.9-15.8.5-2.6 1.4-9.8 2.1-16 .3-2.8 1-8.2 1.5-12 .5-3.9 1.2-9.5 1.5-12.5.3-3 .8-6.2 1-7 .2-.8.6-4.2 1-7.5.3-3.3.8-7.4 1-9 1.1-7.8 4.7-37.3 5-40 .2-3 .2-3-6.9-7.7-1.1-.7-2.7-1.8-3.5-2.5-.9-.7-8.1-6-16.1-11.9-8-5.8-15.8-11.6-17.5-12.9-1.6-1.3-7-5.4-12-9.1-4.9-3.7-9.2-7-9.5-7.4-.3-.3-2-1.5-3.8-2.6l-3.2-2 10.2-4.9c19.7-9.2 45.3-21.2 50.8-23.7 3-1.4 8.7-4 12.5-5.8 3.9-1.8 7.9-3.6 9.1-4 1.9-.7 2.3-2.8 4.8-23.7 1.5-12.5 2.9-23.9 3.1-25.3 2-13.9 5.6-44.3 5.2-44.6-.4-.4-36-12.7-86.7-29.9-11.8-4-30.9-10.5-42.5-14.5-11.5-3.9-23.5-8-26.5-9s-22.8-7.8-44-15c-30.8-10.6-67.4-23-88-30-1.4-.5-11-3.8-21.5-7.3-44.6-15.3-72.6-24.7-73.3-24.6-.4 0-1.6.4-2.7.9z"/></svg>